<?xml version="1.0" encoding="UTF-8" standalone="no"?>
<svg
   width="210mm"
   height="297mm"
   viewBox="0 0 210 297"
   version="1.1"
   id="svg5"
   inkscape:version="1.1.2 (0a00cf5339, 2022-02-04)"
   sodipodi:docname="logo.svg"
   xmlns:inkscape="http://www.inkscape.org/namespaces/inkscape"
   xmlns:sodipodi="http://sodipodi.sourceforge.net/DTD/sodipodi-0.dtd"
   xmlns="http://www.w3.org/2000/svg"
   xmlns:svg="http://www.w3.org/2000/svg">
  <sodipodi:namedview
     id="namedview7"
     pagecolor="#ffffff"
     bordercolor="#666666"
     borderopacity="1.0"
     inkscape:pageshadow="2"
     inkscape:pageopacity="0.0"
     inkscape:pagecheckerboard="0"
     inkscape:document-units="mm"
     showgrid="false"
     inkscape:zoom="0.49260383"
     inkscape:cx="-92.366315"
     inkscape:cy="545.06276"
     inkscape:window-width="1920"
     inkscape:window-height="1016"
     inkscape:window-x="0"
     inkscape:window-y="0"
     inkscape:window-maximized="1"
     inkscape:current-layer="layer1" />
  <defs
     id="defs2" />
  <g
     inkscape:label="Layer 1"
     inkscape:groupmode="layer"
     id="layer1">
    <path
       id="path4"
       inkscape:connector-curvature="0"
       d="m 102.49082,124.86034 c -18.26841,0.68939 -34.813385,7.75546 -47.566805,18.95777 H 78.36273 l 24.12809,-12.40873 z m 5.1703,0 v 6.54904 l 24.12808,12.40873 h 23.43873 C 142.47449,132.6158 125.92951,125.54973 107.66112,124.86034 Z m -58.079755,24.12808 c -7.755457,8.27249 -13.615133,18.26842 -17.062005,29.47074 l 12.925762,22.40466 21.887624,-3.61921 16.889664,-29.29839 -7.238426,-18.9578 z m 83.586575,0 -7.23843,18.9578 18.26842,31.53886 19.47481,3.10219 13.95982,-24.12811 c -3.44686,-11.20232 -9.30655,-21.19825 -17.06201,-29.47074 z m -42.913522,22.05999 -17.234337,29.98777 15.8556,27.23026 h 32.400559 l 15.85562,-27.23026 -17.23436,-29.98777 z m -59.458491,14.64917 c -1.034061,4.82563 -1.551091,9.82358 -1.551091,14.99389 0,12.92576 3.274524,24.98981 8.961859,35.6751 l 6.549055,-3.96389 -1.206406,-24.30043 z m 148.560073,0 -13.78746,24.12811 -1.03407,22.05996 7.41075,4.48092 c 5.68734,-10.68529 8.96188,-22.74934 8.96188,-35.6751 0,-5.17031 -0.51704,-10.16826 -1.5511,-14.99389 z m -92.720782,49.46261 -12.408731,15.33857 13.787478,24.12808 c 5.51499,1.20642 11.202316,1.8958 17.062005,1.8958 5.85966,0 11.54699,-0.68938 17.06201,-1.8958 l 12.7534,-22.40463 -13.78746,-17.06202 z m -38.432599,1.37873 -7.410772,4.30862 c 9.134208,14.64917 23.266375,26.02384 40.156036,31.71118 L 66.98806,248.43064 Z m 114.608411,0.51703 -20.68122,13.09814 -12.92576,22.40463 c 16.88965,-5.68734 31.02183,-17.06201 40.15602,-31.71118 z"
       style="fill:#ffffff;stroke:#ffffff;stroke-width:0.861716" />
    <path
       d="m 94.528103,49.188462 c -4.954862,0.430853 -13.67976,5.520159 -15.829737,9.621912 -7.077286,13.500554 -1.608827,21.152605 -1.126264,22.053101 5.961347,11.123043 23.032818,12.255364 33.570758,16.310577 3.7166,1.430456 2.54897,5.539148 1.17369,6.160428 -13.336817,6.02944 -28.954576,-5.838127 -28.954576,-5.838127 0,0 -6.499928,9.928707 -9.978682,15.529867 7.421115,5.46069 21.078468,8.43621 21.078468,8.43621 v 10.1338 h 19.94616 l -0.0603,-10.3113 c 0,0 12.35099,-2.66012 16.70958,-10.76029 6.34138,-11.787414 0.72296,-21.714399 0,-23.162964 -4.97903,-9.969194 -34.446314,-13.398824 -35.066751,-17.211073 -0.161867,-0.997877 0.27651,-3.462361 1.205536,-3.860483 1.126264,-0.482573 12.052855,-3.816548 26.170375,5.629591 3.2659,-5.195286 9.53922,-15.297214 9.53922,-15.297214 0,0 -7.28324,-6.212997 -18.49764,-7.864889 0,-4.308598 0,-10.455251 0,-10.455251 H 94.462672 c 0,-8.6e-4 -0.0017,5.93121 0.06546,10.886105 z"
       style="fill:#ffffff;stroke:#ffffff;stroke-width:0.861716"
       id="path153" />
  </g>
</svg>
